<svg xmlns="http://www.w3.org/2000/svg" version="1.1" xmlns:xlink="http://www.w3.org/1999/xlink" xmlns:svgjs="http://svgjs.dev/svgjs" width="1000" height="1000" viewBox="0 0 1000 1000"><rect width="1000" height="1000" fill="#010c80"></rect><g transform="matrix(0.7,0,0,0.7,149.57576372255477,282.1265587044535)"><svg viewBox="0 0 396 247" data-background-color="#010c80" preserveAspectRatio="xMidYMid meet" height="623" width="1000" xmlns="http://www.w3.org/2000/svg" xmlns:xlink="http://www.w3.org/1999/xlink"><g id="tight-bounds" transform="matrix(1,0,0,1,0.23999660028800918,-0.09999999999999432)"><svg viewBox="0 0 395.52 247.2" height="247.2" width="395.52"><g><svg></svg></g><g><svg viewBox="0 0 395.52 247.2" height="247.2" width="395.52"><g><g><path xmlns="http://www.w3.org/2000/svg" d="M47.607 166.855c6.276 6.367 14.235 9.551 23.878 9.551 10.867 0 18.903-2.954 24.107-8.862 1.52-1.717 2.818-3.705 3.894-5.966h33.638c-1.328 4.861-3.155 9.375-5.481 13.542-5.449 9.735-12.918 17.082-22.408 22.041-9.49 4.99-20.204 7.485-32.143 7.485h-3.215c-13.163 0-24.949-2.679-35.357-8.036-10.408-5.357-18.597-13.286-24.566-23.786-1.998-3.504-3.661-7.252-4.99-11.246h38.508c1.18 1.926 2.559 3.685 4.135 5.277zM9.954 74.927c5.969-10.561 14.128-18.597 24.475-24.108 10.316-5.51 21.827-8.265 34.53-8.265h3.214c12.245 0 23.158 2.403 32.74 7.209 9.551 4.837 17.082 12.107 22.592 21.812 2.414 4.265 4.3 8.948 5.656 14.047l-35.403 0c-1.027-2.052-2.238-3.903-3.636-5.553-5.296-6.184-12.918-9.275-22.867-9.275-9.643 0-17.556 3.168-23.74 9.505-1.568 1.607-2.938 3.381-4.11 5.323l-38.254 0c1.297-3.76 2.898-7.325 4.803-10.695zM163.321 73.09v-28.24h72.551v28.24h-18.367v12.532l-35.587 0v-12.532zM217.505 174.11h18.367v28.24h-72.551v-28.24h18.597l0-12.532h35.587zM394.52 202.35h-35.357l0-40.772 35.357 0zM304.75 202.35h-35.587l0-40.772 35.587 0zM269.163 44.85h35.357v40.772l-35.357 0zM359.163 44.85h35.357v40.772h-35.357z" fill="#f8fafc" fill-rule="nonzero" stroke="none" stroke-width="1" stroke-linecap="butt" stroke-linejoin="miter" stroke-miterlimit="10" stroke-dasharray="" stroke-dashoffset="0" font-family="none" font-weight="none" font-size="none" text-anchor="none" style="mix-blend-mode: normal" data-fill-palette-color="tertiary"></path></g></g><g transform="matrix(1,0,0,1,0,91.01348579239506)"><svg viewBox="0 0 395.52 65.17302841520987" height="65.17302841520987" width="395.52"><g><svg viewBox="0 0 395.52 65.17302841520987" height="65.17302841520987" width="395.52"><g><svg viewBox="0 0 395.52 65.17302841520987" height="65.17302841520987" width="395.52"><g><svg viewBox="0 0 395.52 65.17302841520987" height="65.17302841520987" width="395.52"><g><svg viewBox="0 0 395.52 65.17302841520987" height="65.17302841520987" width="395.52"><g><svg viewBox="0 0 395.52 36.947753086419745" height="36.947753086419745" width="395.52"><g transform="matrix(1,0,0,1,0,0)"><svg width="395.52" viewBox="2.4000000953674316 -36 485.9599914550781 45.400001525878906" height="36.947753086419745" data-palette-color="#f8fafc"><path d="M10.5-13.6Q10.5-9.8 12.55-7.73 14.6-5.65 17.75-5.65L17.75-5.65Q21.3-5.65 23-7.58 24.7-9.5 24.7-13.5L24.7-13.5 31.75-13.5Q31.75-9.1 29.98-5.93 28.2-2.75 25.1-1.13 22 0.5 18.1 0.5L18.1 0.5 17.4 0.5Q13.1 0.5 9.7-1.25 6.3-3 4.35-6.43 2.4-9.85 2.4-14.7L2.4-14.7 2.4-19.6Q2.4-24.3 4.35-27.75 6.3-31.2 9.68-33 13.05-34.8 17.2-34.8L17.2-34.8 17.9-34.8Q21.9-34.8 25.03-33.23 28.15-31.65 29.95-28.48 31.75-25.3 31.75-20.7L31.75-20.7 24.4-20.7Q24.4-24.6 22.68-26.63 20.95-28.65 17.7-28.65L17.7-28.65Q14.55-28.65 12.53-26.58 10.5-24.5 10.5-20.7L10.5-20.7 10.5-13.6ZM53.1-17.25Q53.1-18.95 52.02-20 50.95-21.05 48.55-21.05L48.55-21.05Q47.15-21.05 46.15-20.58 45.15-20.1 44.62-19.4 44.1-18.7 44.1-18.1L44.1-18.1 44.1-17.7 37.05-17.7Q36.95-18.3 36.95-18.6L36.95-18.6Q36.95-20.75 38.37-22.45 39.8-24.15 42.35-25.1 44.9-26.05 48.2-26.05L48.2-26.05 49.25-26.05Q54.65-26.05 57.45-23.93 60.25-21.8 60.25-18.1L60.25-18.1 60.25-6.3Q60.25-5.4 60.67-4.95 61.1-4.5 61.7-4.5L61.7-4.5Q62.2-4.5 62.8-4.7 63.4-4.9 63.75-5.05L63.75-5.05 63.75-0.55Q61.9 0.5 59.35 0.5L59.35 0.5Q56.6 0.5 55.15-0.63 53.7-1.75 53.45-3.8L53.45-3.8Q49.95 0.5 44.85 0.5L44.85 0.5Q41.05 0.5 38.6-1.05 36.15-2.6 36.15-6.95L36.15-6.95Q36.15-10.5 38.17-12.38 40.2-14.25 43.8-14.9 47.4-15.55 53.1-15.55L53.1-15.55 53.1-17.25ZM53.1-11.45Q48.35-11.45 46.02-10.53 43.7-9.6 43.7-7.5L43.7-7.5Q43.7-5.85 44.62-5.18 45.55-4.5 47.45-4.5L47.45-4.5Q48.75-4.5 50.05-5.2 51.35-5.9 52.22-7.2 53.1-8.5 53.1-10.1L53.1-10.1 53.1-11.45ZM72.8-25.55L73.59-21.8Q76.75-26.05 81.75-26.05L81.75-26.05Q85.65-26.05 88.17-23.95 90.7-21.85 90.7-17.85L90.7-17.85 90.7 0 83.4 0 83.4-16.25Q83.4-18.2 82.27-19.48 81.15-20.75 79.4-20.75L79.4-20.75Q77.45-20.75 76.05-19.28 74.65-17.8 74.65-15.7L74.65-15.7 74.65 0 67.34 0 67.34-25.55 72.8-25.55ZM103.44-10.35Q103.44-7.85 104.74-6.18 106.04-4.5 108.24-4.5L108.24-4.5Q110.54-4.5 111.87-5.93 113.19-7.35 113.19-10.15L113.19-10.15 120.09-10.15Q120.09-6.6 118.57-4.2 117.04-1.8 114.54-0.65 112.04 0.5 109.04 0.5L109.04 0.5 108.24 0.5Q102.64 0.5 99.34-2.83 96.04-6.15 96.04-12.05L96.04-12.05 96.04-13.5Q96.04-17.4 97.62-20.23 99.19-23.05 101.94-24.55 104.69-26.05 108.24-26.05L108.24-26.05 109.04-26.05Q111.99-26.05 114.52-24.78 117.04-23.5 118.57-21.08 120.09-18.65 120.09-15.35L120.09-15.35 112.84-15.35Q112.84-17.95 111.69-19.5 110.54-21.05 108.29-21.05L108.29-21.05Q106.04-21.05 104.74-19.28 103.44-17.5 103.44-14.8L103.44-14.8 103.44-10.35ZM149.24-9.55Q149.24-6.2 147.64-3.93 146.04-1.65 143.42-0.58 140.79 0.5 137.69 0.5L137.69 0.5 136.89 0.5Q133.34 0.5 130.49-1 127.64-2.5 126.02-5.33 124.39-8.15 124.39-12.05L124.39-12.05 124.39-13.5Q124.39-17.35 126.04-20.2 127.69-23.05 130.52-24.55 133.34-26.05 136.89-26.05L136.89-26.05 137.69-26.05Q140.79-26.05 143.44-24.78 146.09-23.5 147.69-21.08 149.29-18.65 149.29-15.35L149.29-15.35 149.29-11.55 131.79-11.55 131.79-10.35Q131.79-7.85 133.27-6.18 134.74-4.5 137.29-4.5L137.29-4.5Q139.59-4.5 140.92-5.78 142.24-7.05 142.24-9.55L142.24-9.55 149.24-9.55ZM136.94-21.05Q134.74-21.05 133.37-19.5 131.99-17.95 131.79-15.55L131.79-15.55 141.89-15.55Q141.89-18.1 140.72-19.58 139.54-21.05 136.94-21.05L136.94-21.05ZM169.09-15.65L169.09-16.8Q169.09-18.35 168.24-19.48 167.39-20.6 165.54-20.6L165.54-20.6Q163.79-20.6 162.86-19.23 161.94-17.85 161.94-15.8L161.94-15.8 161.94 0 154.74 0 154.74-25.55 160.14-25.55 161.04-21.8Q161.24-22.35 162.06-23.35 162.89-24.35 164.46-25.2 166.04-26.05 168.19-26.05L168.19-26.05Q171.64-26.05 173.51-23.9 175.39-21.75 175.39-18.2L175.39-18.2Q175.39-17.45 175.31-16.7 175.24-15.95 175.19-15.65L175.19-15.65 169.09-15.65ZM190.48-28.15L190.48-34.3 206.28-34.3 206.28-28.15 202.28-28.15 202.28-6.15 206.28-6.15 206.28 0 190.48 0 190.48-6.15 194.53-6.15 194.53-28.15 190.48-28.15ZM218.68-25.55L219.48-21.8Q222.63-26.05 227.63-26.05L227.63-26.05Q231.53-26.05 234.06-23.95 236.58-21.85 236.58-17.85L236.58-17.85 236.58 0 229.28 0 229.28-16.25Q229.28-18.2 228.16-19.48 227.03-20.75 225.28-20.75L225.28-20.75Q223.33-20.75 221.93-19.28 220.53-17.8 220.53-15.7L220.53-15.7 220.53 0 213.23 0 213.23-25.55 218.68-25.55ZM247.68-8.15L247.68-7.8Q247.68-6.05 249.23-5.28 250.78-4.5 253.08-4.5L253.08-4.5Q255.08-4.5 256.65-5.1 258.23-5.7 258.23-7L258.23-7Q258.23-8.4 256.78-9 255.33-9.6 252.28-10.05L252.28-10.05Q249.08-10.6 247.03-11.25 244.98-11.9 243.5-13.5 242.03-15.1 242.03-17.95L242.03-17.95Q242.03-20.55 243.55-22.38 245.08-24.2 247.6-25.13 250.13-26.05 253.13-26.05L253.13-26.05 254.13-26.05Q256.78-26.05 259.15-25.18 261.53-24.3 262.98-22.73 264.43-21.15 264.43-19.15L264.43-19.15Q264.43-18.75 264.38-18.43 264.33-18.1 264.33-18.05L264.33-18.05 257.93-18.05Q257.93-21.05 253.33-21.05L253.33-21.05Q251.23-21.05 249.95-20.45 248.68-19.85 248.68-18.8L248.68-18.8Q248.68-17.55 250.05-17.05 251.43-16.55 254.38-16.1L254.38-16.1Q257.73-15.55 259.8-14.93 261.88-14.3 263.43-12.68 264.98-11.05 264.98-8.1L264.98-8.1Q264.98-3.55 261.78-1.53 258.58 0.5 253.63 0.5L253.63 0.5 251.98 0.5Q248.88 0.5 246.43-0.45 243.98-1.4 242.6-3.15 241.23-4.9 241.23-7.15L241.23-7.15 241.28-8.15 247.68-8.15ZM269.98-30.25L269.98-36 277.38-36 277.38-30.25 269.98-30.25ZM277.33 0L270.03 0 270.03-25.55 277.33-25.55 277.33 0ZM301.47-5.8Q304.97-5.8 306.85-3.83 308.72-1.85 308.72 1.35L308.72 1.35Q308.72 3.65 307.42 5.5 306.12 7.35 303.9 8.38 301.67 9.4 298.97 9.4L298.97 9.4 288.42 9.4Q285.37 9.4 283.3 7.73 281.22 6.05 281.22 3.1L281.22 3.1Q281.22 1.3 282.3-0.18 283.37-1.65 285.02-2.4L285.02-2.4Q283.87-3.15 283.27-4.25 282.67-5.35 282.67-6.65L282.67-6.65Q282.67-8.5 283.87-9.88 285.07-11.25 286.97-11.85L286.97-11.85Q285.27-12.9 284.32-14.53 283.37-16.15 283.37-18L283.37-18Q283.37-21.55 286.15-23.8 288.92-26.05 294.27-26.05L294.27-26.05 295.07-26.05Q297.42-26.05 299.27-25.45L299.27-25.45Q301.32-26.65 302.12-27.9 302.92-29.15 303.02-30.15L303.02-30.15 308.72-30.15Q308.72-24.85 303.42-23.55L303.42-23.55 303.37-23.4Q306.02-21.15 306.02-18L306.02-18Q306.02-15.8 304.77-13.98 303.52-12.15 301.25-11.08 298.97-10 296.02-10L296.02-10 292.57-10Q291.07-10 290.25-9.35 289.42-8.7 289.42-7.9L289.42-7.9Q289.42-6.9 290.2-6.35 290.97-5.8 292.57-5.8L292.57-5.8 301.47-5.8ZM290.37-18Q290.37-16.25 291.62-15.28 292.87-14.3 294.77-14.3L294.77-14.3Q296.72-14.3 297.97-15.28 299.22-16.25 299.22-18L299.22-18Q299.22-19.75 297.97-20.73 296.72-21.7 294.77-21.7L294.77-21.7Q292.87-21.7 291.62-20.73 290.37-19.75 290.37-18L290.37-18ZM298.77 4.9Q300.07 4.9 301.02 4.13 301.97 3.35 301.97 2.3L301.97 2.3Q301.97 1.3 301.17 0.63 300.37-0.05 299.07-0.05L299.07-0.05 290.37-0.05Q289.27-0.05 288.47 0.68 287.67 1.4 287.67 2.4L287.67 2.4Q287.67 3.4 288.47 4.15 289.27 4.9 290.37 4.9L290.37 4.9 298.77 4.9ZM319.82-36L319.82-23.05Q322.72-26.05 326.92-26.05L326.92-26.05Q330.82-26.05 333.35-23.95 335.87-21.85 335.87-17.85L335.87-17.85 335.87 0 328.57 0 328.57-16.25Q328.57-18.2 327.45-19.48 326.32-20.75 324.57-20.75L324.57-20.75Q322.62-20.75 321.22-19.28 319.82-17.8 319.82-15.7L319.82-15.7 319.82 0 312.52 0 312.52-36 319.82-36ZM356.27-0.45Q355.27-0.05 353.64 0.23 352.02 0.5 350.77 0.5L350.77 0.5Q346.92 0.5 344.97-1.15 343.02-2.8 343.02-6.65L343.02-6.65 343.02-20.55 340.22-20.55 340.22-25.55 343.27-25.55 345.82-33.7 350.32-33.7 350.32-25.55 356.27-25.55 356.27-20.55 350.32-20.55 350.32-7.9Q350.32-5.9 351.09-5.2 351.87-4.5 353.17-4.5L353.17-4.5Q353.77-4.5 354.72-4.7 355.67-4.9 356.27-5.15L356.27-5.15 356.27-0.45ZM365.56-8.15L365.56-7.8Q365.56-6.05 367.12-5.28 368.67-4.5 370.97-4.5L370.97-4.5Q372.97-4.5 374.54-5.1 376.12-5.7 376.12-7L376.12-7Q376.12-8.4 374.67-9 373.22-9.6 370.17-10.05L370.17-10.05Q366.97-10.6 364.92-11.25 362.87-11.9 361.39-13.5 359.92-15.1 359.92-17.95L359.92-17.95Q359.92-20.55 361.44-22.38 362.97-24.2 365.49-25.13 368.02-26.05 371.02-26.05L371.02-26.05 372.02-26.05Q374.67-26.05 377.04-25.18 379.42-24.3 380.87-22.73 382.31-21.15 382.31-19.15L382.31-19.15Q382.31-18.75 382.27-18.43 382.22-18.1 382.22-18.05L382.22-18.05 375.81-18.05Q375.81-21.05 371.22-21.05L371.22-21.05Q369.12-21.05 367.84-20.45 366.56-19.85 366.56-18.8L366.56-18.8Q366.56-17.55 367.94-17.05 369.31-16.55 372.27-16.1L372.27-16.1Q375.62-15.55 377.69-14.93 379.77-14.3 381.31-12.68 382.87-11.05 382.87-8.1L382.87-8.1Q382.87-3.55 379.67-1.53 376.47 0.5 371.52 0.5L371.52 0.5 369.87 0.5Q366.77 0.5 364.31-0.45 361.87-1.4 360.49-3.15 359.12-4.9 359.12-7.15L359.12-7.15 359.17-8.15 365.56-8.15ZM426.51 0L418.81 0 418.81-14.3 406.96-14.3 406.96 0 399.21 0 399.21-34.3 406.91-34.3 406.91-20.7 418.81-20.7 418.81-34.3 426.51-34.3 426.51 0ZM456.71-6Q456.71-5.25 457.16-4.88 457.61-4.5 458.16-4.5L458.16-4.5Q458.66-4.5 459.26-4.7 459.86-4.9 460.21-5.05L460.21-5.05 460.21-0.55Q458.36 0.5 455.81 0.5L455.81 0.5Q450.81 0.5 450.01-3.15L450.01-3.15Q446.86 0.5 442.31 0.5L442.31 0.5Q438.41 0.5 435.88-1.6 433.36-3.7 433.36-7.7L433.36-7.7 433.36-25.55 440.66-25.55 440.66-9.3Q440.66-7.35 441.78-6.08 442.91-4.8 444.66-4.8L444.66-4.8Q446.61-4.8 448.01-6.28 449.41-7.75 449.41-9.85L449.41-9.85 449.41-25.55 456.71-25.55 456.71-6ZM471.36-22.6Q472.46-24.05 474.28-25.05 476.11-26.05 478.51-26.05L478.51-26.05Q481.31-26.05 483.53-24.6 485.76-23.15 487.06-20.25 488.36-17.35 488.36-13.2L488.36-13.2 488.36-12.65Q488.36-8.3 486.96-5.35 485.56-2.4 483.16-0.95 480.76 0.5 477.76 0.5L477.76 0.5Q475.01 0.5 472.86-0.63 470.71-1.75 469.26-3.9L469.26-3.9 468.41-2.6Q467.91-1.75 467.46-1.13 467.01-0.5 466.71 0L466.71 0 464.06 0 464.06-36 471.36-36 471.36-22.6ZM480.96-14.7Q480.96-17.65 479.61-19.2 478.26-20.75 476.16-20.75L476.16-20.75Q474.06-20.75 472.71-19.2 471.36-17.65 471.36-14.7L471.36-14.7 471.36-10.55Q471.36-7.65 472.71-6.08 474.06-4.5 476.16-4.5L476.16-4.5Q478.26-4.5 479.61-6.08 480.96-7.65 480.96-10.55L480.96-10.55 480.96-14.7Z" opacity="1" transform="matrix(1,0,0,1,0,0)" fill="#f8fafc" class="undefined-text-0" data-fill-palette-color="primary" id="text-0"></path></svg></g></svg></g><g transform="matrix(1,0,0,1,0,42.33931700780246)"><svg viewBox="0 0 395.52 22.833711407407403" height="22.833711407407403" width="395.52"><g transform="matrix(1,0,0,1,0,0)"><svg width="395.52" viewBox="2.200000047683716 -40.81999969482422 977.3099975585938 56.41999816894531" height="22.833711407407403" data-palette-color="#f8fafc"><path d="M6.15-4.47L6.15-30.52Q6.15-33.45 2.78-33.45L2.78-33.45Q2.25-33.45 2.25-33.64L2.25-33.64 2.25-34.23Q2.25-34.42 2.44-34.42L2.44-34.42 14.67-34.42Q14.87-34.42 14.87-34.23L14.87-34.23 14.87-33.64Q14.87-33.45 13.79-33.45 12.72-33.45 11.82-32.76 10.91-32.08 10.91-29.96L10.91-29.96 10.91-3.91Q10.91-0.98 14.31-0.98L14.31-0.98Q14.82-0.98 14.82-0.78L14.82-0.78 14.82-0.2Q14.82 0 14.62 0L14.62 0 2.39 0Q2.2 0 2.2-0.2L2.2-0.2 2.2-0.78Q2.2-0.98 3.27-0.98 4.35-0.98 5.25-1.66 6.15-2.34 6.15-4.47L6.15-4.47ZM52.43-7.69L52.43-7.69 52.38-12.84Q52.38-15.99 51.84-17.26 51.31-18.53 50.48-19.18 49.65-19.82 48.24-19.82 46.84-19.82 42.3-17.63L42.3-17.63Q41.69-17.26 41.66-16.94L41.66-16.94 41.66-3.81Q41.66-1.34 44.3-0.98L44.3-0.98Q45.45-0.81 45.45-0.43 45.45-0.05 45.2 0L45.2 0 34.32 0Q34.07-0.05 34.07-0.34L34.07-0.34Q34.07-0.81 35.22-0.98L35.22-0.98Q37.86-1.34 37.86-3.81L37.86-3.81 37.86-17.82Q37.86-18.85 36.73-19.24L36.73-19.24Q36.24-19.41 35.68-19.52 35.12-19.63 34.79-19.73 34.46-19.82 34.38-19.91 34.29-20 34.29-20.28 34.29-20.56 34.66-20.75L34.66-20.75 40.88-23.68Q41.18-23.83 41.25-23.83L41.25-23.83Q41.66-23.83 41.66-23.24L41.66-23.24 41.66-19.43Q41.74-19.19 41.86-19.19L41.86-19.19Q42.01-19.19 42.91-19.63L42.91-19.63Q45.01-20.68 47.13-21.66 49.26-22.63 50.65-22.63L50.65-22.63Q56.29-22.63 56.29-12.35L56.29-12.35 56.07-5.22 56.07-3.81Q56.07-1.9 57.97-1.32L57.97-1.32Q58.78-1.05 59.52-0.94 60.27-0.83 60.5-0.73 60.73-0.63 60.73-0.34 60.73-0.05 60.49 0L60.49 0 48.72 0Q48.48-0.05 48.48-0.34L48.48-0.34Q48.48-0.81 49.62-0.98L49.62-0.98Q52.24-1.34 52.24-4L52.24-4Q52.43-5.22 52.43-7.69ZM90.51-18.95L90.51-16.7Q90.51-16.16 90.1-16.16 89.7-16.16 89.48-16.75L89.48-16.75Q88.89-18.36 87.73-19.6 86.58-20.85 84.87-20.85L84.87-20.85Q82.62-20.85 81.84-18.6L81.84-18.6Q81.59-17.85 81.59-17.04 81.59-16.24 82.62-15.25 83.65-14.26 85.99-12.89 88.33-11.52 89.41-10.57L89.41-10.57Q91.85-8.4 91.85-5.54 91.85-2.69 89.75-1.01 87.65 0.66 84.87 0.66L84.87 0.66Q83.38 0.66 82.17 0.26 80.96-0.15 80.78-0.15 80.59-0.15 80.19 0.26 79.79 0.66 79.54 0.66L79.54 0.66 79.13 0.66Q78.98 0.66 78.76-1.98 78.54-4.61 78.54-5.1 78.54-5.59 78.63-5.64 78.71-5.69 78.91-5.69 79.1-5.69 79.24-5.57 79.37-5.44 79.47-5.26 79.57-5.08 79.63-4.88 79.69-4.69 79.93-4.15L79.93-4.15Q81.59-0.61 85.06-0.61L85.06-0.61Q86.6-0.61 87.53-1.75 88.46-2.88 88.46-4.27 88.46-5.66 87.72-6.62 86.99-7.57 85.9-8.35 84.82-9.13 83.55-9.86L83.55-9.86Q78.62-12.74 78.62-16.24L78.62-16.24Q78.62-18.85 80.86-20.74 83.11-22.63 85.48-22.63 87.84-22.63 88.98-22.12 90.12-21.61 90.31-21.25 90.51-20.9 90.51-18.95L90.51-18.95ZM122.01 0L111.13 0Q110.88-0.05 110.88-0.34L110.88-0.34Q110.88-0.78 112.03-0.93L112.03-0.93Q114.67-1.32 114.67-3.71L114.67-3.71 114.67-16.63Q114.67-17.65 113.54-18.04L113.54-18.04Q113.05-18.21 112.49-18.32 111.93-18.43 111.6-18.53 111.27-18.63 111.19-18.71 111.1-18.8 111.1-19.08 111.1-19.36 111.47-19.56L111.47-19.56 117.69-22.49Q117.99-22.63 118.06-22.63L118.06-22.63Q118.47-22.63 118.47-22.05L118.47-22.05 118.47-3.71Q118.47-1.32 121.11-0.93L121.11-0.93Q122.26-0.78 122.26-0.42 122.26-0.05 122.01 0L122.01 0ZM116.22-29.49Q115.2-29.49 114.43-30.13 113.66-30.76 113.66-31.9 113.66-33.03 114.4-33.69 115.13-34.35 116.14-34.35 117.16-34.35 117.85-33.57 118.55-32.79 118.55-31.88 118.55-30.98 117.89-30.24 117.23-29.49 116.22-29.49ZM159.21-20.29L159.21-20.29Q159.21-20.29 165.75-20.58L165.75-20.58Q166.31-20.58 166.49-20.46 166.66-20.34 166.85-19.62 167.05-18.9 167.05-18.26 167.05-17.63 166.92-17.53 166.8-17.43 166.44-17.43L166.44-17.43 161.02-17.43Q161.16-17.16 161.33-16.87 161.5-16.58 161.77-15.89 162.04-15.21 162.04-13.78 162.04-12.35 161.35-10.8 160.65-9.25 159.31-8.06L159.31-8.06Q156.33-5.37 151.59-5.37L151.59-5.37Q150.35-5.37 148.86-5.83L148.86-5.83Q148.49-5.44 147.88-5.11 147.27-4.79 146.69-4.44L146.69-4.44Q145.22-3.61 145.22-2.78L145.22-2.78Q145.22-0.71 152.11-0.66 158.99-0.61 161.15-0.21 163.31 0.2 164.51 1.39L164.51 1.39Q166.39 3.27 166.39 5.69L166.39 5.69Q166.39 7.76 164.61 9.96L164.61 9.96Q161.5 13.84 155.13 15.14L155.13 15.14Q152.86 15.6 150.32 15.6L150.32 15.6Q145.71 15.6 143.32 13.93 140.92 12.26 140.92 9.89L140.92 9.89Q140.92 8.59 141.53 7.75 142.14 6.91 143.08 6.16 144.02 5.42 145.15 4.6 146.27 3.78 147.3 2.51L147.3 2.51Q144.95 2.32 143.28 1.03 141.61-0.27 141.61-1.51 141.61-2.76 142.27-3.36 142.93-3.96 143.88-4.38 144.83-4.81 145.88-5.18 146.93-5.54 147.71-6.13L147.71-6.13Q144.98-7.2 143.49-9.09 142-10.99 142-13.23L142-13.23Q142-17.41 145.04-20.04 148.08-22.68 152.37-22.68 156.67-22.68 159.21-20.29ZM145.94 5.18Q145.37 5.74 145 6.37 144.63 7.01 144.63 7.97 144.63 8.94 145.33 10 146.03 11.06 147.22 11.91L147.22 11.91Q149.86 13.87 153.57 13.87 157.28 13.87 160.3 11.71 163.31 9.55 163.31 6.97 163.31 4.39 160.82 3.52L160.82 3.52Q159.65 3.13 154.79 3.03 149.93 2.93 148.49 2.76L148.49 2.76Q147.86 3.49 147.19 4.05 146.51 4.61 145.94 5.18ZM158.04-13.79Q158.04-17.24 156.32-19.4 154.6-21.56 151.76-21.56L151.76-21.56Q148.1-21.56 146.59-18.12L146.59-18.12Q146-16.8 146-15.09L146-15.09Q146-11.6 147.44-9.28L147.44-9.28Q149.2-6.49 152.06-6.49 154.91-6.49 156.48-8.42 158.04-10.35 158.04-13.79ZM191.3-39.58L191.3-18.9Q191.3-18.31 191.47-18.31 191.65-18.31 191.72-18.4 191.79-18.48 192.74-19.53L192.74-19.53Q195.5-22.61 198.34-22.61L198.34-22.61Q202.05-22.61 203.78-20.95L203.78-20.95Q205.9-18.85 205.9-13.89L205.9-13.89 205.9-3.71Q205.9-1.32 208.54-0.93L208.54-0.93Q209.69-0.78 209.69-0.42 209.69-0.05 209.44 0L209.44 0 198.55 0Q198.31-0.05 198.31-0.34L198.31-0.34Q198.31-0.78 199.46-0.93L199.46-0.93Q202.09-1.32 202.09-3.71L202.09-3.71 202.09-13.65Q202.09-17.24 201.58-18.31L201.58-18.31Q200.61-20.46 197.5-20.46L197.5-20.46Q195.6-20.46 193.45-18.84 191.3-17.21 191.3-15.26L191.3-15.26 191.3-3.71Q191.3-1.32 193.94-0.93L193.94-0.93Q195.09-0.78 195.09-0.42 195.09-0.05 194.84 0L194.84 0 183.96 0Q183.71-0.05 183.71-0.34L183.71-0.34Q183.71-0.78 184.86-0.93L184.86-0.93Q187.5-1.32 187.5-3.71L187.5-3.71 187.5-34.16Q187.5-35.18 186.37-35.57L186.37-35.57Q185.88-35.74 185.32-35.85 184.76-35.96 184.43-36.06 184.1-36.16 184.02-36.24 183.93-36.33 183.93-36.61 183.93-36.89 184.3-37.08L184.3-37.08 190.52-40.01Q190.82-40.16 190.89-40.16L190.89-40.16Q191.3-40.16 191.3-39.58L191.3-39.58ZM241.15-18.77L233.8-18.77Q233.65-18.77 233.65-18.55L233.65-18.55 233.65-5.08Q233.65-3.61 234.3-2.78 234.95-1.95 235.95-1.95 236.95-1.95 237.69-2.28 238.44-2.61 238.99-3 239.54-3.39 239.97-3.72 240.41-4.05 240.76-4.05 241.1-4.05 241.1-3.88L241.1-3.88Q241.1-3.3 240.98-3.13L240.98-3.13Q238.05 0.66 235.32 0.66 232.6 0.66 231.22-1.06 229.84-2.78 229.84-5.18L229.84-5.18 229.84-18.77 228.01-18.77Q227.33-18.77 227.29-19.21 227.25-19.65 227.43-19.78L227.43-19.78Q228.72-20.61 230.99-22.75L230.99-22.75Q231.23-23.02 231.65-23.56 232.06-24.1 232.86-25.02 233.65-25.95 234.07-25.95 234.48-25.95 234.48-25.61L234.48-25.61Q234.48-25.56 233.65-22.41L233.65-22.41Q233.65-21.97 234.04-21.95L234.04-21.95 240.27-21.95Q241.34-21.95 241.34-18.92L241.34-18.92Q241.34-18.77 241.15-18.77L241.15-18.77ZM301.92-0.39L301.92-0.39Q301.92 0 301.48 0L301.48 0 288.07 0Q287.83-0.05 287.83-0.34L287.83-0.34Q287.83-0.78 288.98-0.93L288.98-0.93Q291.61-1.32 291.61-3.71L291.61-3.71 291.61-18.51Q291.61-18.77 291.32-18.77L291.32-18.77 288.66-18.77Q288.37-18.77 288.1-18.96 287.83-19.14 287.83-19.45 287.83-19.75 288.12-19.92L288.12-19.92Q288.54-20.17 290.08-20.58 291.61-21 291.61-21.95L291.61-21.95 291.61-22.75Q291.61-31.54 295.42-36.28L295.42-36.28Q297.55-38.94 301.89-40.38L301.89-40.38Q303.21-40.82 304.5-40.82 305.8-40.82 307.53-40.15 309.26-39.48 309.26-38.53L309.26-38.53Q309.26-38.33 309.2-38.18 309.14-38.04 309.07-37.82L309.07-37.82 308.07-35.67Q307.87-35.28 307.6-35.28L307.6-35.28Q307.53-35.28 306.55-36.05 305.58-36.82 304.49-37.46 303.41-38.11 301.94-38.11L301.94-38.11Q299.08-38.11 297.62-36.65 296.15-35.18 295.79-33.34 295.42-31.49 295.42-29.27L295.42-29.27 295.42-22.17Q295.42-21.97 295.67-21.97L295.67-21.97 300.43-21.97Q301.11-21.97 301.32-21.84 301.53-21.7 301.72-20.96 301.92-20.21 301.92-19.59 301.92-18.97 301.79-18.87 301.67-18.77 301.28-18.77L301.28-18.77 295.74-18.77Q295.42-18.77 295.42-18.53L295.42-18.53 295.42-4.2Q295.42-0.71 301.48-0.71L301.48-0.71Q301.92-0.66 301.92-0.39ZM319.65-10.97Q319.65-15.77 323.06-19.23 326.47-22.68 331.23-22.68 335.99-22.68 339.5-19.32 343.02-15.97 343.02-11.04 343.02-6.1 339.69-2.72 336.35 0.66 331.32 0.66 326.3 0.66 322.97-2.76 319.65-6.18 319.65-10.97ZM325.73-4.69L325.73-4.69Q328.13-0.66 332.25-0.66L332.25-0.66Q335.45-0.66 337.15-3.22 338.84-5.79 338.84-9.52 338.84-13.26 336.46-17.19 334.08-21.12 330.05-21.12L330.05-21.12Q327.1-21.12 325.4-18.57 323.71-16.02 323.71-12.1 323.71-8.18 325.73-4.69ZM377.14-17.5L377.14-17.5Q376.85-17.55 376.28-17.82L376.28-17.82Q374.26-18.75 373.11-18.75 371.96-18.75 370.71-17.32 369.45-15.89 369.45-14.75L369.45-14.75 369.45-3.71Q369.45-1.88 371.57-1.27L371.57-1.27Q372.5-1.03 373.31-0.92 374.11-0.81 374.34-0.71 374.58-0.61 374.58-0.33 374.58-0.05 374.33 0L374.33 0 362.1 0Q361.86-0.05 361.86-0.34L361.86-0.34Q361.86-0.78 363-0.93L363-0.93Q365.64-1.32 365.64-3.71L365.64-3.71 365.64-16.63Q365.64-17.65 364.52-18.04L364.52-18.04Q364.03-18.21 363.47-18.32 362.91-18.43 362.58-18.53 362.25-18.63 362.16-18.71 362.08-18.8 362.08-19.08 362.08-19.36 362.44-19.56L362.44-19.56 368.67-22.49Q368.96-22.63 369.03-22.63L369.03-22.63Q369.45-22.63 369.45-22.05L369.45-22.05 369.45-18.09Q369.45-17.8 369.59-17.8L369.59-17.8Q369.79-17.8 370.6-18.95L370.6-18.95Q372.92-22.19 374.43-22.19L374.43-22.19Q375.28-22.19 377.05-21.51 378.82-20.83 378.82-20.36L378.82-20.36Q378.82-19.8 378.26-18.65 377.7-17.5 377.14-17.5ZM431.39-39.58L431.39-20.43Q431.39-19.68 431.74-19.68 432.1-19.68 434.86-21.26L434.86-21.26Q438.08-22.63 439.76-22.63 441.45-22.63 442.99-21.66 444.52-20.68 445.6-19.09L445.6-19.09Q447.87-15.82 447.87-11.16 447.87-6.49 444.63-2.92 441.4 0.66 436.1 0.66L436.1 0.66Q432.66 0.66 429.75-0.17L429.75-0.17Q428.9-0.42 428.3-0.56 427.7-0.71 427.64-0.87 427.58-1.03 427.58-1.25L427.58-1.25 427.58-34.16Q427.58-35.18 426.46-35.57L426.46-35.57Q425.97-35.74 425.41-35.85 424.85-35.96 424.52-36.06 424.19-36.16 424.1-36.24 424.02-36.33 424.02-36.61 424.02-36.89 424.38-37.08L424.38-37.08 430.61-40.01Q430.9-40.16 430.97-40.16L430.97-40.16Q431.39-40.16 431.39-39.58L431.39-39.58ZM436.57-19.65L436.57-19.65Q434.39-19.65 431.68-18.09L431.68-18.09Q431.39-17.92 431.39-17.5L431.39-17.5 431.39-5.96Q431.63-3.74 433.32-2.49 435-1.25 437.01-1.25L437.01-1.25Q440.52-1.25 442.44-4.03 444.35-6.81 444.35-10.38 444.35-13.94 442.4-16.8 440.45-19.65 436.57-19.65ZM486.09-12.87L471.93-12.87Q471.52-12.87 471.52-11.08L471.52-11.08Q471.52-7.3 473.76-4.74 476.01-2.17 479.34-2.17 482.67-2.17 485.75-5.05L485.75-5.05Q485.8-5.1 485.87-5.1L485.87-5.1 485.99-5.1Q486.14-5.1 486.27-4.87 486.41-4.64 486.53-4.57L486.53-4.57Q483.7-1.12 479.87 0.2L479.87 0.2Q478.55 0.66 476.89 0.66 475.23 0.66 473.52-0.26 471.81-1.17 470.59-2.66L470.59-2.66Q468-5.76 468-10.39 468-15.01 470.82-18.82 473.64-22.63 478.57-22.63L478.57-22.63Q482.11-22.63 484.36-19.47 486.6-16.31 486.6-13.92L486.6-13.92Q486.6-12.87 486.09-12.87L486.09-12.87ZM472.2-15.5L472.2-15.21Q472.2-14.75 472.64-14.75L472.64-14.75 481.84-14.75Q482.48-14.75 482.48-15.5L482.48-15.5Q482.48-17.26 480.9-19.1 479.33-20.95 477.45-20.95L477.45-20.95Q475.62-20.95 474.12-19.29 472.61-17.63 472.2-15.5L472.2-15.5ZM519.72-18.77L512.37-18.77Q512.23-18.77 512.23-18.55L512.23-18.55 512.23-5.08Q512.23-3.61 512.87-2.78 513.52-1.95 514.52-1.95 515.52-1.95 516.27-2.28 517.01-2.61 517.56-3 518.11-3.39 518.55-3.72 518.99-4.05 519.33-4.05 519.67-4.05 519.67-3.88L519.67-3.88Q519.67-3.3 519.55-3.13L519.55-3.13Q516.62 0.66 513.9 0.66 511.18 0.66 509.8-1.06 508.42-2.78 508.42-5.18L508.42-5.18 508.42-18.77 506.59-18.77Q505.9-18.77 505.87-19.21 505.83-19.65 506-19.78L506-19.78Q507.3-20.61 509.57-22.75L509.57-22.75Q509.81-23.02 510.23-23.56 510.64-24.1 511.43-25.02 512.23-25.95 512.64-25.95 513.06-25.95 513.06-25.61L513.06-25.61Q513.06-25.56 512.23-22.41L512.23-22.41Q512.23-21.97 512.62-21.95L512.62-21.95 518.84-21.95Q519.92-21.95 519.92-18.92L519.92-18.92Q519.92-18.77 519.72-18.77L519.72-18.77ZM551.26-18.77L543.91-18.77Q543.76-18.77 543.76-18.55L543.76-18.55 543.76-5.08Q543.76-3.61 544.41-2.78 545.05-1.95 546.05-1.95 547.06-1.95 547.8-2.28 548.55-2.61 549.09-3 549.64-3.39 550.08-3.72 550.52-4.05 550.86-4.05 551.21-4.05 551.21-3.88L551.21-3.88Q551.21-3.3 551.08-3.13L551.08-3.13Q548.15 0.66 545.43 0.66 542.71 0.66 541.33-1.06 539.95-2.78 539.95-5.18L539.95-5.18 539.95-18.77 538.12-18.77Q537.44-18.77 537.4-19.21 537.36-19.65 537.53-19.78L537.53-19.78Q538.83-20.61 541.1-22.75L541.1-22.75Q541.34-23.02 541.76-23.56 542.17-24.1 542.97-25.02 543.76-25.95 544.18-25.95 544.59-25.95 544.59-25.61L544.59-25.61Q544.59-25.56 543.76-22.41L543.76-22.41Q543.76-21.97 544.15-21.95L544.15-21.95 550.38-21.95Q551.45-21.95 551.45-18.92L551.45-18.92Q551.45-18.77 551.26-18.77L551.26-18.77ZM587.6-12.87L573.44-12.87Q573.02-12.87 573.02-11.08L573.02-11.08Q573.02-7.3 575.27-4.74 577.51-2.17 580.85-2.17 584.18-2.17 587.26-5.05L587.26-5.05Q587.3-5.1 587.38-5.1L587.38-5.1 587.5-5.1Q587.65-5.1 587.78-4.87 587.91-4.64 588.04-4.57L588.04-4.57Q585.2-1.12 581.37 0.2L581.37 0.2Q580.05 0.66 578.39 0.66 576.73 0.66 575.02-0.26 573.31-1.17 572.09-2.66L572.09-2.66Q569.51-5.76 569.51-10.39 569.51-15.01 572.33-18.82 575.15-22.63 580.08-22.63L580.08-22.63Q583.62-22.63 585.86-19.47 588.11-16.31 588.11-13.92L588.11-13.92Q588.11-12.87 587.6-12.87L587.6-12.87ZM573.71-15.5L573.71-15.21Q573.71-14.75 574.14-14.75L574.14-14.75 583.35-14.75Q583.98-14.75 583.98-15.5L583.98-15.5Q583.98-17.26 582.41-19.1 580.83-20.95 578.95-20.95L578.95-20.95Q577.12-20.95 575.62-19.29 574.12-17.63 573.71-15.5L573.71-15.5ZM622.79-17.5L622.79-17.5Q622.5-17.55 621.94-17.82L621.94-17.82Q619.91-18.75 618.76-18.75 617.62-18.75 616.36-17.32 615.1-15.89 615.1-14.75L615.1-14.75 615.1-3.71Q615.1-1.88 617.22-1.27L617.22-1.27Q618.15-1.03 618.96-0.92 619.76-0.81 620-0.71 620.23-0.61 620.23-0.33 620.23-0.05 619.98 0L619.98 0 607.75 0Q607.51-0.05 607.51-0.34L607.51-0.34Q607.51-0.78 608.66-0.93L608.66-0.93Q611.29-1.32 611.29-3.71L611.29-3.71 611.29-16.63Q611.29-17.65 610.17-18.04L610.17-18.04Q609.68-18.21 609.12-18.32 608.56-18.43 608.23-18.53 607.9-18.63 607.81-18.71 607.73-18.8 607.73-19.08 607.73-19.36 608.09-19.56L608.09-19.56 614.32-22.49Q614.61-22.63 614.69-22.63L614.69-22.63Q615.1-22.63 615.1-22.05L615.1-22.05 615.1-18.09Q615.1-17.8 615.25-17.8L615.25-17.8Q615.44-17.8 616.25-18.95L616.25-18.95Q618.57-22.19 620.08-22.19L620.08-22.19Q620.94-22.19 622.71-21.51 624.48-20.83 624.48-20.36L624.48-20.36Q624.48-19.8 623.91-18.65 623.35-17.5 622.79-17.5ZM671.21-10.97Q671.21-15.77 674.61-19.23 678.02-22.68 682.78-22.68 687.54-22.68 691.06-19.32 694.57-15.97 694.57-11.04 694.57-6.1 691.24-2.72 687.91 0.66 682.88 0.66 677.85 0.66 674.53-2.76 671.21-6.18 671.21-10.97ZM677.29-4.69L677.29-4.69Q679.68-0.66 683.81-0.66L683.81-0.66Q687-0.66 688.7-3.22 690.4-5.79 690.4-9.52 690.4-13.26 688.02-17.19 685.64-21.12 681.61-21.12L681.61-21.12Q678.65-21.12 676.96-18.57 675.26-16.02 675.26-12.1 675.26-8.18 677.29-4.69ZM730.55 0.05L730.55-2.15Q730.43-2.56 730.23-2.43 730.03-2.29 728.64-1.59L728.64-1.59Q724.08 0.68 721.03 0.68 717.97 0.68 716.63-1.27L716.63-1.27Q716.14-2 716.14-3.08L716.14-3.08 716.14-17.97Q716.07-18.68 715.51-19.19L715.51-19.19Q714.75-19.82 713.93-19.87 713.12-19.92 713.12-20.37 713.12-20.83 713.51-20.92L713.51-20.92 719.1-22.53Q719.39-22.63 719.67-22.63 719.95-22.63 719.95-22.22L719.95-22.22 719.95-5.83Q719.95-4.13 721.47-3.2 722.98-2.27 725.33-2.27 727.69-2.27 729.57-3.71L729.57-3.71Q730.16-4.17 730.55-4.74L730.55-4.74 730.55-17.97Q730.47-18.68 729.91-19.19L729.91-19.19Q729.16-19.82 728.34-19.87 727.52-19.92 727.52-20.37 727.52-20.83 727.91-20.92L727.91-20.92 733.5-22.53Q733.79-22.63 734.08-22.63 734.36-22.63 734.36-22.14L734.36-22.14 734.36-4.81Q734.48-3.74 734.97-3.27 735.45-2.81 736.55-2.81L736.55-2.81 737.97-2.91Q738.12-2.91 738.12-2.62 738.12-2.34 737.75-2.17L737.75-2.17 731.26 0.51Q730.96 0.66 730.75 0.66 730.55 0.66 730.55 0.05L730.55 0.05ZM770.31-18.77L762.96-18.77Q762.81-18.77 762.81-18.55L762.81-18.55 762.81-5.08Q762.81-3.61 763.46-2.78 764.11-1.95 765.11-1.95 766.11-1.95 766.85-2.28 767.6-2.61 768.15-3 768.7-3.39 769.14-3.72 769.57-4.05 769.92-4.05 770.26-4.05 770.26-3.88L770.26-3.88Q770.26-3.3 770.14-3.13L770.14-3.13Q767.21 0.66 764.48 0.66 761.76 0.66 760.38-1.06 759-2.78 759-5.18L759-5.18 759-18.77 757.17-18.77Q756.49-18.77 756.45-19.21 756.42-19.65 756.59-19.78L756.59-19.78Q757.88-20.61 760.15-22.75L760.15-22.75Q760.39-23.02 760.81-23.56 761.23-24.1 762.02-25.02 762.81-25.95 763.23-25.95 763.64-25.95 763.64-25.61L763.64-25.61Q763.64-25.56 762.81-22.41L762.81-22.41Q762.81-21.97 763.2-21.95L763.2-21.95 769.43-21.95Q770.5-21.95 770.5-18.92L770.5-18.92Q770.5-18.77 770.31-18.77L770.31-18.77ZM807.72-19.7L807.72-19.7Q807.72-17.99 805.75-17.99L805.75-17.99Q804.74-17.99 804.05-18.57 803.35-19.14 802.97-19.54 802.6-19.95 802.18-20.29L802.18-20.29Q800.42-21.73 797.9-20.61 795.37-19.48 794-15.82L794-15.82Q793.25-13.79 793.25-11.79L793.25-11.79Q793.25-7.5 795.2-4.77 797.15-2.05 801.18-2.05L801.18-2.05Q804.18-2.05 806.58-4.74L806.58-4.74Q807.31-5.54 807.45-5.54 807.6-5.54 807.77-5.4 807.94-5.25 807.94-4.97 807.94-4.69 807.8-4.54L807.8-4.54Q804.06 0.66 798.4 0.66L798.4 0.66Q794.3 0.66 791.67-2.39 789.05-5.44 789.05-9.38L789.05-9.38Q789.07-16.65 792.56-19.85L792.56-19.85Q795.64-22.66 801.33-22.66L801.33-22.66Q804.84-22.66 805.99-21.95 807.14-21.24 807.6-20.17L807.6-20.17Q807.72-19.92 807.72-19.7ZM827.22-10.97Q827.22-15.77 830.62-19.23 834.03-22.68 838.79-22.68 843.55-22.68 847.07-19.32 850.58-15.97 850.58-11.04 850.58-6.1 847.25-2.72 843.92 0.66 838.89 0.66 833.86 0.66 830.54-2.76 827.22-6.18 827.22-10.97ZM833.3-4.69L833.3-4.69Q835.69-0.66 839.82-0.66L839.82-0.66Q843.02-0.66 844.71-3.22 846.41-5.79 846.41-9.52 846.41-13.26 844.03-17.19 841.65-21.12 837.62-21.12L837.62-21.12Q834.67-21.12 832.97-18.57 831.27-16.02 831.27-12.1 831.27-8.18 833.3-4.69ZM902.04-7.69L902.04-7.69 901.99-12.84Q901.99-15.99 901.45-17.26 900.91-18.53 900.08-19.18 899.25-19.82 897.85-19.82 896.45-19.82 891.91-17.63L891.91-17.63Q891.3-17.26 891.27-16.94L891.27-16.94 891.27-3.81Q891.27-1.34 893.91-0.98L893.91-0.98Q895.06-0.81 895.06-0.43 895.06-0.05 894.81 0L894.81 0 883.92 0Q883.68-0.05 883.68-0.34L883.68-0.34Q883.68-0.81 884.83-0.98L884.83-0.98Q887.46-1.34 887.46-3.81L887.46-3.81 887.46-15.97Q887.46-19.8 882.73-19.8L882.73-19.8Q880.99-19.8 877.92-17.75L877.92-17.75Q877.14-17.24 876.77-16.8L876.77-16.8 876.77-3.81Q876.77-1.34 879.41-0.98L879.41-0.98Q880.55-0.81 880.55-0.43 880.55-0.05 880.31 0L880.31 0 869.42 0Q869.18-0.05 869.18-0.34L869.18-0.34Q869.18-0.81 870.32-0.98L870.32-0.98Q872.96-1.34 872.96-3.76L872.96-3.76 872.96-17.82Q872.96-18.85 871.84-19.24L871.84-19.24Q871.35-19.41 870.79-19.52 870.23-19.63 869.9-19.73 869.57-19.82 869.48-19.91 869.4-20 869.4-20.28 869.4-20.56 869.76-20.75L869.76-20.75 875.99-23.68Q876.28-23.83 876.35-23.83L876.35-23.83Q876.77-23.83 876.77-23.24L876.77-23.24 876.77-19.19Q876.79-19.04 876.95-19.04 877.11-19.04 877.76-19.38 878.4-19.73 879.45-20.35 880.5-20.97 882.23-21.8 883.95-22.63 885.88-22.63L885.88-22.63Q888.98-22.63 890.32-19.97L890.32-19.97Q890.83-18.9 891.25-19.06 891.66-19.21 892.54-19.65L892.54-19.65Q894.62-20.68 896.74-21.66 898.86-22.63 900.26-22.63L900.26-22.63Q905.89-22.63 905.89-12.35L905.89-12.35 905.68-5.22 905.68-3.81Q905.68-1.9 907.58-1.32L907.58-1.32Q908.39-1.05 909.13-0.94 909.87-0.83 910.11-0.73 910.34-0.63 910.34-0.34 910.34-0.05 910.09 0L910.09 0 898.33 0Q898.08-0.05 898.08-0.34L898.08-0.34Q898.08-0.81 899.23-0.98L899.23-0.98Q901.84-1.34 901.84-4L901.84-4Q902.04-5.22 902.04-7.69ZM945.97-12.87L931.81-12.87Q931.4-12.87 931.4-11.08L931.4-11.08Q931.4-7.3 933.64-4.74 935.89-2.17 939.22-2.17 942.55-2.17 945.63-5.05L945.63-5.05Q945.68-5.1 945.75-5.1L945.75-5.1 945.87-5.1Q946.02-5.1 946.16-4.87 946.29-4.64 946.41-4.57L946.41-4.57Q943.58-1.12 939.75 0.2L939.75 0.2Q938.43 0.66 936.77 0.66 935.11 0.66 933.4-0.26 931.69-1.17 930.47-2.66L930.47-2.66Q927.88-5.76 927.88-10.39 927.88-15.01 930.7-18.82 933.52-22.63 938.45-22.63L938.45-22.63Q941.99-22.63 944.24-19.47 946.48-16.31 946.48-13.92L946.48-13.92Q946.48-12.87 945.97-12.87L945.97-12.87ZM932.08-15.5L932.08-15.21Q932.08-14.75 932.52-14.75L932.52-14.75 941.72-14.75Q942.36-14.75 942.36-15.5L942.36-15.5Q942.36-17.26 940.78-19.1 939.21-20.95 937.33-20.95L937.33-20.95Q935.5-20.95 934-19.29 932.5-17.63 932.08-15.5L932.08-15.5ZM978.16-18.95L978.16-16.7Q978.16-16.16 977.76-16.16 977.36-16.16 977.14-16.75L977.14-16.75Q976.55-18.36 975.39-19.6 974.23-20.85 972.52-20.85L972.52-20.85Q970.28-20.85 969.5-18.6L969.5-18.6Q969.25-17.85 969.25-17.04 969.25-16.24 970.28-15.25 971.3-14.26 973.65-12.89 975.99-11.52 977.06-10.57L977.06-10.57Q979.51-8.4 979.51-5.54 979.51-2.69 977.41-1.01 975.31 0.66 972.52 0.66L972.52 0.66Q971.03 0.66 969.83 0.26 968.62-0.15 968.43-0.15 968.25-0.15 967.85 0.26 967.45 0.66 967.2 0.66L967.2 0.66 966.79 0.66Q966.64 0.66 966.42-1.98 966.2-4.61 966.2-5.1 966.2-5.59 966.29-5.64 966.37-5.69 966.57-5.69 966.76-5.69 966.9-5.57 967.03-5.44 967.13-5.26 967.23-5.08 967.29-4.88 967.35-4.69 967.59-4.15L967.59-4.15Q969.25-0.61 972.72-0.61L972.72-0.61Q974.26-0.61 975.19-1.75 976.11-2.88 976.11-4.27 976.11-5.66 975.38-6.62 974.65-7.57 973.56-8.35 972.48-9.13 971.21-9.86L971.21-9.86Q966.27-12.74 966.27-16.24L966.27-16.24Q966.27-18.85 968.52-20.74 970.77-22.63 973.13-22.63 975.5-22.63 976.64-22.12 977.77-21.61 977.97-21.25 978.16-20.9 978.16-18.95L978.16-18.95Z" opacity="1" transform="matrix(1,0,0,1,0,0)" fill="#f8fafc" class="undefined-text-1" data-fill-palette-color="secondary" id="text-1"></path></svg></g></svg></g></svg></g></svg></g></svg></g></svg></g></svg></g></svg></g><defs></defs></svg><rect width="395.52" height="247.2" fill="none" stroke="none" visibility="hidden"></rect></g></svg></g></svg>